<?xml version="1.0" encoding="UTF-8"?>
<svg enable-background="new 0 0 1614.911 1744.783" version="1.1" viewBox="0 0 1614.911 1744.783" xml:space="preserve" xmlns="http://www.w3.org/2000/svg">
	<ellipse cx="800" cy="100" rx="700" ry="700" stroke="red" fill="#c0c2c2" />
	<path d="m860.36 013.73c275.62-66.24 610.01-36.266 622.9-15.014 18.113 29.87 8.134 70.294-16.099 84.727-80.322 47.839-32.364 264.62-167.41 289.11-337.59 61.22-391.16-39.358-446.4-231.02-8.895-30.86-50.841-29.391-82.809-24.415-13.858 2.157-22.962 8.56-27.288 23.113-11.64 39.154-28.717 76.392-42.418 114.8-25.72 72.101-76.802 112.24-151.1 123.53-41.294 6.275-122.8 25.564-269.53-10.212-44.583-10.87-73.34-73.381-85.176-120.92-29.826-119.8-26.527-136.44-64.983-164.38-25.64-18.623-32.301-89.002 7.261-94.163 441.36-57.569 591.09 56.561 723.06 24.844z"/>
	<ellipse cx="800" cy="1500" rx="1000" ry="800" />
	<ellipse cx="800" cy="800" rx="100" ry="100" style=" fill: white" />
	<polygon points="900,800 800,1700 700,800" style=" fill: white" />
</svg>
